HIERARCHY
ROOT Hips
{
	OFFSET -3.958830 18.904000 13.208200
	CHANNELS 6 Xposition Yposition Zposition Zrotation Yrotation Xrotation 
	JOINT LHipJoint
	{
		OFFSET 0.000000 0.000000 0.000000
		CHANNELS 3 Zrotation Yrotation Xrotation
		JOINT LeftUpLeg
		{
			OFFSET 1.800000 -1.400000 0.085000
			CHANNELS 3 Zrotation Yrotation Xrotation
			JOINT LeftLeg
			{
				OFFSET 2.215000 -6.000000 0.000000
				CHANNELS 3 Zrotation Yrotation Xrotation
				JOINT LeftFoot
				{
					OFFSET 2.500000 -6.900000 0.000000
					CHANNELS 3 Zrotation Yrotation Xrotation
					JOINT LeftToeBase
					{
						OFFSET 0.200000 -0.500000 1.950000
						CHANNELS 3 Zrotation Yrotation Xrotation
						End Site
						{
							OFFSET 0.000000 0.000000 0.000000
						}
					}
				}
			}
		}
	}
	JOINT RHipJoint
	{
		OFFSET 0.000000 0.000000 0.000000
		CHANNELS 3 Zrotation Yrotation Xrotation
		JOINT RightUpLeg
		{
			OFFSET -1.800000 -1.400000 0.085000
			CHANNELS 3 Zrotation Yrotation Xrotation
			JOINT RightLeg
			{
				OFFSET -2.215000 -6.000000 0.000000
				CHANNELS 3 Zrotation Yrotation Xrotation
				JOINT RightFoot
				{
					OFFSET -2.500000 -6.900000 0.000000
					CHANNELS 3 Zrotation Yrotation Xrotation
					JOINT RightToeBase
					{
						OFFSET -0.200000 -0.500000 1.950000
						CHANNELS 3 Zrotation Yrotation Xrotation
						End Site
						{
							OFFSET 0.000000 0.000000 0.000000
						}
					}
				}
			}
		}
	}
	JOINT LowerBack
	{
		OFFSET 0.000000 0.000000 0.000000
		CHANNELS 3 Zrotation Yrotation Xrotation
		JOINT Spine
		{
			OFFSET -0.087000 1.940000 -0.288900
			CHANNELS 3 Zrotation Yrotation Xrotation
			JOINT Spine1
			{
				OFFSET 0.000000 1.950000 0.060000
				CHANNELS 3 Zrotation Yrotation Xrotation
				JOINT Neck
				{
					OFFSET 0.000000 0.000000 0.000000
					CHANNELS 3 Zrotation Yrotation Xrotation
					JOINT Neck1
					{
						OFFSET 0.000000 1.600000 0.340000
						CHANNELS 3 Zrotation Yrotation Xrotation
						JOINT Head
						{
							OFFSET 0.000000 1.667000 -0.240000
							CHANNELS 3 Zrotation Yrotation Xrotation
							End Site
							{
								OFFSET 0.000000 0.000000 0.000000
							}
						}
					}
				}
				JOINT LeftShoulder
				{
					OFFSET 0.000000 0.000000 0.000000
					CHANNELS 3 Zrotation Yrotation Xrotation
					JOINT LeftArm
					{
						OFFSET 2.700000 1.550000 -0.730000
						CHANNELS 3 Zrotation Yrotation Xrotation
						JOINT LeftForeArm
						{
							OFFSET 5.450000 0.000000 0.000000
							CHANNELS 3 Zrotation Yrotation Xrotation
							JOINT LeftHand
							{
								OFFSET 3.450000 0.000000 0.000000
								CHANNELS 3 Zrotation Yrotation Xrotation
								JOINT LeftHandIndex1
								{
									OFFSET 0.750000 0.000000 0.000000
									CHANNELS 3 Zrotation Yrotation Xrotation
									End Site
									{
										OFFSET 0.000000 0.000000 0.000000
									}
								}
							}
						}
					}
				}
				JOINT RightShoulder
				{
					OFFSET 0.000000 0.000000 0.000000
					CHANNELS 3 Zrotation Yrotation Xrotation
					JOINT RightArm
					{
						OFFSET -2.700000 1.550000 -0.730000
						CHANNELS 3 Zrotation Yrotation Xrotation
						JOINT RightForeArm
						{
							OFFSET -5.450000 0.000000 0.000000
							CHANNELS 3 Zrotation Yrotation Xrotation
							JOINT RightHand
							{
								OFFSET -3.450000 0.000000 0.000000
								CHANNELS 3 Zrotation Yrotation Xrotation
								JOINT RightHandIndex1
								{
									OFFSET -0.750000 0.000000 0.000000
									CHANNELS 3 Zrotation Yrotation Xrotation
									End Site
									{
										OFFSET 0.000000 0.000000 0.000000
									}
								}
							}
						}
					}
				}
			}
		}
	}
}
MOTION
Frames: 13
Frame Time: 0.016667
-0.888930 16.679300 -0.382940 0.203324 -8.550559 0.016638 -14.612722 12.115497 3.176605 17.122916 -2.910970 -16.996026 -16.326150 12.061491 25.403938 0.047861 6.650153 2.009128 0.749500 0.605080 0.762760 18.814539 -11.496647 2.606631 -12.762526 1.992044 -27.471059 5.963460 -10.163734 37.615570 -0.495332 -5.878369 2.174293 0.352490 -0.189630 0.060960 -5.103083 1.214452 -7.361864 19.402844 -2.677252 9.830269 -4.835891 -3.074392 8.098182 2.415218 8.835842 -5.685735 15.156100 -11.878088 38.880671 -4.346700 -1.104410 -6.999050 -9.442334 -1.154744 0.080638 -17.146077 -5.664548 -5.080413 27.177912 -70.369208 -16.568975 -3.282166 3.315797 0.220770 -0.003660 0.075100 0.100960 5.949865 -6.623793 0.778064 67.737015 12.374913 -1.868138 16.312225 31.237982 1.441606 2.335024 -1.716694 0.029070 -0.022920 -0.389170 -0.209990 
-0.889090 16.672020 -0.380300 0.255323 -8.693636 0.255020 -14.608825 12.035548 3.195166 17.300249 -2.927654 -17.192433 -16.675379 12.195669 25.388985 0.065344 6.689449 1.992282 0.758190 0.614370 0.773290 18.828429 -11.498247 2.629425 -12.788990 2.069707 -28.002529 5.768368 -10.207577 38.092361 -0.502468 -5.941143 2.152931 0.356460 -0.202550 0.062690 -5.131607 1.369411 -7.370932 19.669522 -2.654438 9.550059 -4.910132 -3.125522 8.010420 2.762134 9.368057 -5.887799 16.495601 -12.867498 38.262036 -4.771640 -1.468640 -6.599280 -9.153035 -0.984461 0.240101 -17.913232 -5.010694 -5.292983 28.504786 -69.712925 -17.064878 -3.271585 3.311075 0.209430 -0.001520 0.077110 0.103690 5.049331 -7.093059 0.937137 68.779173 12.443976 -1.747830 15.991155 31.569684 1.339288 2.328681 -1.742954 0.037990 -0.036610 -0.403220 -0.210100 
-0.887360 16.665250 -0.380370 0.177163 -8.898046 0.562248 -14.591603 11.919692 3.210184 17.627348 -2.937267 -17.435695 -16.993232 12.332880 25.396808 0.071042 6.733738 1.968832 0.763720 0.618930 0.789890 18.856947 -11.521461 2.664418 -12.692932 2.187083 -28.630301 5.580692 -10.223424 38.432992 -0.504934 -5.969901 2.140688 0.359240 -0.218470 0.058710 -5.201346 1.639937 -7.374565 20.417104 -2.694920 9.141175 -5.154125 -3.250263 7.945639 3.307730 10.129282 -6.226397 18.596658 -14.329881 37.343224 -5.058000 -2.087300 -6.436220 -8.679059 -0.750152 0.529346 -19.457597 -3.958221 -5.757379 31.368055 -68.606877 -18.293820 -3.257266 3.264093 0.204950 -0.003780 0.079520 0.095700 3.608541 -7.768461 1.184550 70.603322 12.719454 -1.514326 15.045770 31.750891 1.036254 2.317199 -1.756254 0.042290 -0.041910 -0.409870 -0.216170 
-0.880200 16.665220 -0.376100 0.062776 -9.112660 0.807443 -14.566508 11.808015 3.222837 18.016321 -2.919379 -17.555811 -17.251795 12.467947 25.412869 0.062864 6.788328 1.941745 0.741370 0.599900 0.786780 18.886226 -11.574774 2.693972 -12.624333 2.256736 -28.980001 5.568409 -10.233993 38.371319 -0.488708 -5.952598 2.147445 0.355260 -0.221580 0.041910 -5.280271 1.959324 -7.377442 21.385098 -2.772447 8.853525 -5.514098 -3.401977 7.641168 3.967449 10.965327 -6.603883 21.189430 -15.935372 36.051512 -5.226980 -2.731110 -6.265970 -8.655940 -0.534800 0.812329 -20.898534 -2.528968 -6.246925 34.118780 -67.378196 -19.273817 -3.266231 3.193994 0.202680 -0.000250 0.070460 0.074880 2.379039 -8.430136 1.480078 72.394695 12.961070 -1.271496 13.953386 31.903776 0.696623 2.300950 -1.743294 0.028840 -0.029810 -0.393510 -0.226230 
-0.872960 16.663400 -0.372210 0.004915 -9.376518 1.222242 -14.548572 11.683867 3.234354 18.384770 -2.882579 -17.810883 -17.520791 12.548708 25.233652 0.045710 6.821880 1.929305 0.717530 0.578870 0.770370 18.913759 -11.608990 2.737463 -12.598616 2.393798 -29.547657 5.571056 -10.257363 38.417013 -0.470198 -5.956573 2.150501 0.355860 -0.204130 0.025470 -5.348051 2.276760 -7.375077 22.142599 -2.721510 8.428989 -5.717030 -3.468043 7.288521 4.582241 11.642945 -6.893734 23.594076 -17.499987 34.352030 -4.967070 -3.681060 -5.974460 -8.416630 0.101671 0.968045 -22.959785 -1.633749 -6.557876 36.450368 -65.666546 -19.690476 -3.289984 3.135537 0.195170 0.011270 0.051180 0.064570 1.008892 -9.319473 1.743140 74.409494 13.149801 -0.936593 12.677263 31.883766 0.300692 2.277965 -1.731238 0.009300 -0.006530 -0.373740 -0.228320 
-0.864980 16.657170 -0.372300 -0.010210 -9.607520 1.442998 -14.520748 11.588775 3.240945 18.709965 -2.837337 -17.926789 -17.618156 12.586616 25.148270 0.030202 6.825606 1.920892 0.703770 0.560780 0.759280 18.940845 -11.662280 2.788704 -12.714094 2.495401 -29.976977 5.644033 -10.335567 38.547722 -0.466518 -5.978701 2.132743 0.353840 -0.211300 0.007160 -5.423968 2.578671 -7.399919 22.912654 -2.859863 8.356772 -6.053754 -3.637630 6.892646 4.968591 12.005615 -7.335977 25.575480 -18.776557 33.136648 -4.257860 -4.666800 -5.822320 -7.769677 0.716524 1.266419 -25.084564 -0.296554 -6.990573 38.574857 -63.753853 -19.807347 -3.281796 3.105182 0.209570 -0.004210 0.045750 0.055330 -0.418949 -9.855638 2.093344 76.528673 13.554029 -0.500171 11.557505 31.692505 -0.055834 2.271200 -1.728030 -0.007260 -0.002160 -0.365120 -0.233970 
-0.859480 16.650950 -0.370530 -0.097073 -9.895353 1.655372 -14.507263 11.519354 3.257668 19.191734 -2.747978 -17.949437 -17.765668 12.643589 24.948593 -0.007492 6.851200 1.901038 0.698120 0.539700 0.763120 18.953333 -11.702207 2.817117 -12.642296 2.633597 -30.186326 5.554225 -10.247099 38.471627 -0.452266 -5.940586 2.137672 0.358390 -0.222240 -0.013980 -5.457718 2.806138 -7.414055 23.343439 -2.859948 8.306091 -5.868498 -3.711900 6.494565 5.256043 12.280519 -7.768677 27.451564 -20.032528 31.886126 -3.629410 -5.599160 -5.873730 -7.023716 1.467437 1.458650 -27.210181 0.874811 -7.271409 38.220234 -62.148839 -18.699535 -3.283793 3.115050 0.237680 -0.020460 0.036800 0.040860 -1.750704 -10.401801 2.412907 78.225197 13.799685 -0.190037 10.581915 31.655833 -0.348273 2.252674 -1.721390 -0.035160 0.007040 -0.354470 -0.254040 
-0.850060 16.646670 -0.370350 -0.117640 -10.220531 1.882293 -14.500033 11.454475 3.266778 19.599119 -2.655582 -17.957070 -17.921280 12.717764 24.754983 -0.030285 6.867488 1.875533 0.684290 0.516190 0.753480 18.964206 -11.705364 2.863775 -12.819558 2.798846 -30.591037 5.701632 -10.286056 38.531345 -0.435891 -5.943021 2.120283 0.355740 -0.234850 -0.039270 -5.483491 2.968944 -7.435496 23.561690 -2.877117 8.280002 -5.401206 -3.794279 6.196080 5.293522 12.369418 -8.140523 28.751863 -20.894280 30.952442 -2.398800 -6.679530 -5.949350 -6.370218 2.048505 1.731675 -29.545836 2.036269 -7.665897 37.338869 -60.344951 -17.334753 -3.286288 3.143711 0.252000 -0.043410 0.019680 0.014540 -2.499325 -10.660833 2.501803 79.155658 14.337336 0.299087 9.570653 31.335197 -0.615108 2.256954 -1.705398 -0.051260 0.006600 -0.332610 -0.266400 
-0.843230 16.639360 -0.373110 -0.022347 -10.677612 2.151897 -14.503692 11.407319 3.248316 19.912841 -2.547576 -17.946903 -17.836926 12.737143 24.623623 -0.087316 6.904432 1.858203 0.665860 0.462970 0.752380 18.968393 -11.686329 2.920232 -13.181768 2.998238 -31.050439 6.039559 -10.400216 38.571534 -0.422295 -5.969142 2.098105 0.348820 -0.218160 -0.052460 -5.486921 3.077174 -7.437939 23.314748 -2.718980 8.163913 -4.661884 -3.784089 6.088326 5.284275 12.450085 -8.486695 30.039167 -21.634776 30.154715 -1.263750 -7.651630 -6.028640 -5.671633 2.456017 1.949479 -31.466171 3.009186 -7.956579 35.969385 -58.507280 -15.833909 -3.315112 3.148708 0.285800 -0.050040 -0.005940 -0.007200 -3.140886 -10.772522 2.530133 80.131724 15.023187 0.932924 8.453348 30.807449 -0.903042 2.243332 -1.673049 -0.091240 0.030000 -0.297070 -0.290220 
-0.835380 16.632020 -0.377340 -0.091310 -10.927163 2.405323 -14.512085 11.365713 3.230546 20.421961 -2.390535 -17.906566 -17.725499 12.709297 24.289434 -0.134826 6.906626 1.846658 0.634830 0.419670 0.727210 18.969364 -11.648691 2.973744 -13.531602 3.193189 -31.349718 6.688252 -10.647232 38.537931 -0.405936 -6.030905 2.075753 0.341670 -0.202370 -0.068190 -5.480899 3.141816 -7.443848 23.132024 -2.542665 7.917545 -3.780188 -3.767782 6.015284 5.204357 12.470380 -8.916606 31.032659 -22.291511 29.582948 -0.814700 -8.384470 -5.672040 -5.198593 2.362166 2.292639 -33.025161 4.050182 -8.334223 34.259227 -57.000055 -14.430829 -3.342672 3.154899 0.295270 -0.043890 -0.035750 -0.028140 -3.479640 -10.369099 2.552845 80.441027 15.751765 1.607418 7.270440 29.880391 -1.194627 2.238324 -1.643911 -0.120330 0.043450 -0.260240 -0.303210 
-0.826020 16.618360 -0.382170 -0.245488 -11.058070 2.580856 -14.518689 11.332679 3.213405 20.998302 -2.218508 -17.915279 -17.460082 12.698184 24.150809 -0.167952 6.925817 1.841316 0.606300 0.379370 0.702590 18.969062 -11.621050 3.028249 -13.782496 3.414730 -31.520292 7.367903 -10.918979 38.562604 -0.400273 -6.112886 2.056571 0.331230 -0.175140 -0.074240 -5.473266 3.213559 -7.459621 22.994845 -2.334508 7.815649 -2.992229 -3.671054 5.740163 5.119485 12.458906 -9.319782 31.941588 -22.895104 28.896144 -0.710000 -8.975570 -5.126090 -5.034665 2.103571 2.580251 -33.839646 5.063690 -8.569701 33.135822 -55.804483 -13.413764 -3.373767 3.150397 0.299170 -0.027830 -0.061250 -0.034430 -3.568047 -9.739042 2.579453 80.497536 16.443656 2.343604 6.066245 28.643104 -1.456895 2.237721 -1.615154 -0.144910 0.060470 -0.232590 -0.308400 
-0.809630 16.605180 -0.387350 -0.454228 -10.863052 2.577083 -14.516692 11.338395 3.169092 21.447259 -2.078561 -18.034689 -16.629952 12.592429 24.459435 -0.174385 6.907021 1.864228 0.576090 0.341360 0.677190 18.968256 -11.627498 3.076480 -14.221565 3.483932 -31.354089 8.346834 -11.314547 38.369201 -0.407804 -6.202737 2.031870 0.311060 -0.142380 -0.074480 -5.472427 3.277019 -7.474476 22.961683 -2.160509 7.872125 -2.306086 -3.543896 5.409029 4.902960 12.386386 -9.757592 32.658869 -23.503587 28.506143 -0.421650 -9.697490 -4.370200 -5.093210 1.595611 2.911458 -34.474900 5.891219 -8.835298 33.111661 -55.062793 -13.090381 -3.386467 3.129351 0.296200 -0.017140 -0.072300 -0.025480 -3.234071 -8.837029 2.631873 80.005589 16.951658 2.829603 5.302160 27.688558 -1.582371 2.260068 -1.589364 -0.158720 0.078310 -0.221290 -0.295620 
-0.790950 16.593980 -0.394600 -0.775312 -10.398622 2.449825 -14.520796 11.375625 3.116081 21.913357 -1.957588 -18.196870 -15.517902 12.396253 24.885196 -0.205400 6.847980 1.878921 0.572160 0.332850 0.679620 18.960226 -11.631885 3.107914 -14.581124 3.500258 -31.015812 9.255549 -11.695806 38.207990 -0.425291 -6.284924 2.002647 0.308270 -0.142570 -0.080340 -5.451851 3.273180 -7.483243 22.878956 -2.019766 8.070873 -1.546716 -3.440412 5.170569 4.729557 12.326789 -10.117974 33.388508 -23.964697 28.445600 -0.153620 -9.955180 -4.285560 -5.077783 1.153244 3.096034 -34.787589 6.157277 -8.932546 32.582408 -54.492021 -12.653255 -3.381439 3.121125 0.306220 -0.022950 -0.069890 -0.027080 -2.978431 -8.073207 2.662518 79.715605 17.431544 3.212240 4.402165 26.926242 -1.748224 2.275036 -1.567714 -0.166640 0.086700 -0.219370 -0.298770 
